<svg width="141" height="36" viewBox="0 0 141 36" fill="none" xmlns="http://www.w3.org/2000/svg">
<path d="M2.93945 9.8193L17.1328 1.66528L31.326 9.8193V26.1273L17.1328 34.2814L2.93945 26.1273V9.8193Z" fill="url(#paint0_linear_1732_206089)"/>
<path d="M24.1219 17.959L20.6195 23.996L17.1172 17.959H24.1219Z" fill="url(#paint1_linear_1732_206089)"/>
<path d="M17.1297 17.9768L13.6274 24.0136L10.125 17.9768H17.1297Z" fill="url(#paint2_linear_1732_206089)"/>
<path d="M20.6355 24.0147H13.6309L17.1332 17.9783L20.6355 24.0147Z" fill="url(#paint3_linear_1732_206089)"/>
<path d="M24.1435 17.9733L20.641 11.9363L17.1387 17.9733H24.1435Z" fill="url(#paint4_linear_1732_206089)"/>
<path d="M17.1336 17.9765L13.6313 11.9395L10.1289 17.9765H17.1336Z" fill="url(#paint5_linear_1732_206089)"/>
<path d="M20.6376 11.9387H13.6328L17.1352 17.975L20.6376 11.9387Z" fill="url(#paint6_linear_1732_206089)"/>
<path d="M20.6367 11.9387L27.5817 11.969V17.9795L20.6367 11.9387Z" fill="url(#paint7_linear_1732_206089)"/>
<path d="M27.5817 23.9778V17.9795L20.6367 11.9387L27.5817 23.9778Z" fill="url(#paint8_linear_1732_206089)"/>
<path d="M6.67969 23.9775L13.629 24.0142L6.67969 17.9792V23.9775Z" fill="url(#paint9_linear_1732_206089)"/>
<path d="M6.67969 17.9795V11.969L13.629 24.0145L6.67969 17.9795Z" fill="url(#paint10_linear_1732_206089)"/>
<path d="M13.6328 11.9386L17.1312 5.9646L22.3569 8.96676L13.6328 11.9386Z" fill="url(#paint11_linear_1732_206089)"/>
<path d="M13.6328 11.9389L22.3569 8.96704L27.5824 11.9692L13.6328 11.9389Z" fill="url(#paint12_linear_1732_206089)"/>
<path d="M20.6356 24.0142L17.133 29.9816L11.9395 26.9979L20.6356 24.0142Z" fill="url(#paint13_linear_1732_206089)"/>
<path d="M6.67969 23.9773L11.9375 26.9977L20.6337 24.014L6.67969 23.9773Z" fill="url(#paint14_linear_1732_206089)"/>
<path d="M24.1379 17.9792L27.5831 23.9775L22.3574 26.9796L24.1379 17.9792Z" fill="url(#paint15_linear_1732_206089)"/>
<path d="M24.1371 17.9792L22.3565 26.9796L17.1309 29.9816L24.1371 17.9792Z" fill="url(#paint16_linear_1732_206089)"/>
<path d="M10.1238 17.9769L6.67969 11.9692L11.9053 8.96704L10.1238 17.9769Z" fill="url(#paint17_linear_1732_206089)"/>
<path d="M17.1323 5.9646L11.9066 8.96676L10.125 17.9767L17.1323 5.9646Z" fill="url(#paint18_linear_1732_206089)"/>
<path d="M6.67969 11.969L11.0969 7.57349L11.9053 8.96679L6.67969 11.969Z" fill="url(#paint19_linear_1732_206089)"/>
<path d="M11.0996 7.57346L17.1337 5.9646L11.908 8.96676L11.0996 7.57346Z" fill="url(#paint20_linear_1732_206089)"/>
<path d="M17.1309 5.9646L23.1649 7.57346L22.3565 8.96676L17.1309 5.9646Z" fill="url(#paint21_linear_1732_206089)"/>
<path d="M23.1659 7.57349L27.5831 11.969L22.3574 8.96679L23.1659 7.57349Z" fill="url(#paint22_linear_1732_206089)"/>
<path d="M27.582 11.969L29.199 17.9733L27.582 17.9795V11.969Z" fill="url(#paint23_linear_1732_206089)"/>
<path d="M29.199 17.9731L27.582 23.9776V17.9794L29.199 17.9731Z" fill="url(#paint24_linear_1732_206089)"/>
<path d="M17.1309 29.9823L23.1649 28.3735L22.3565 26.9802L17.1309 29.9823Z" fill="url(#paint25_linear_1732_206089)"/>
<path d="M27.5831 23.9773L23.1659 28.3727L22.3574 26.9794L27.5831 23.9773Z" fill="url(#paint26_linear_1732_206089)"/>
<path d="M6.67969 23.9773L11.0969 28.3727L11.9374 26.9977L6.67969 23.9773Z" fill="url(#paint27_linear_1732_206089)"/>
<path d="M11.0996 28.3727L17.1337 29.9815L11.94 26.9978L11.0996 28.3727Z" fill="url(#paint28_linear_1732_206089)"/>
<path d="M6.68125 11.969L5.06445 17.9733L6.68125 17.9795V11.969Z" fill="url(#paint29_linear_1732_206089)"/>
<path d="M5.06445 17.9731L6.68125 23.9776V17.9794L5.06445 17.9731Z" fill="url(#paint30_linear_1732_206089)"/>
<path d="M2.93945 9.81929L10.4028 6.37434L17.1327 1.66528L2.93945 9.81929Z" fill="#3B424E"/>
<path d="M2.9375 9.81958L3.67092 17.9736L2.9375 26.1276V9.81958Z" fill="#0D0D11"/>
<path d="M2.9375 26.1274L10.4008 29.5725L17.1307 34.2814L2.9375 26.1274Z" fill="#5D6475"/>
<path d="M17.1309 34.2814L23.8608 29.5725L31.3241 26.1274L17.1309 34.2814Z" fill="#555D6B"/>
<path d="M31.3273 26.1276L30.5938 17.9736L31.3273 9.81958V26.1276Z" fill="#747C8F"/>
<path d="M17.1309 1.66528L23.8608 6.3743L31.3241 9.81929L17.1309 1.66528Z" fill="#737A8B"/>
<path d="M11.0969 7.57357L17.1311 1.66528L10.4011 6.37433L6.67969 11.969L11.0969 7.57357Z" fill="url(#paint31_linear_1732_206089)"/>
<path d="M2.9375 9.81946L5.06258 17.9735L6.67938 11.9692L10.4008 6.37451L2.9375 9.81946Z" fill="url(#paint32_linear_1732_206089)"/>
<path d="M3.67092 17.9736L6.67938 23.978L2.9375 9.81958L3.67092 17.9736Z" fill="url(#paint33_linear_1732_206089)"/>
<path d="M3.67092 17.9731L2.9375 26.1272L11.0967 28.373L6.67938 23.9776L3.67092 17.9731Z" fill="url(#paint34_linear_1732_206089)"/>
<path d="M10.4008 29.5725L17.1307 29.982L2.9375 26.1274L10.4008 29.5725Z" fill="url(#paint35_linear_1732_206089)"/>
<path d="M10.4043 29.5723L17.1342 34.2812L23.1683 28.373L17.1342 29.9818L10.4043 29.5723Z" fill="url(#paint36_linear_1732_206089)"/>
<path d="M23.1649 28.3727L17.1309 34.2808L23.8608 29.5719L27.5821 23.9773L23.1649 28.3727Z" fill="url(#paint37_linear_1732_206089)"/>
<path d="M27.5827 23.9776L23.8613 29.5723L31.3247 26.1272L29.1996 17.9731L27.5827 23.9776Z" fill="url(#paint38_linear_1732_206089)"/>
<path d="M29.199 17.9733L31.324 26.1273L30.5905 17.9733L27.582 11.969L29.199 17.9733Z" fill="url(#paint39_linear_1732_206089)"/>
<path d="M27.5852 11.969L30.5936 17.9732L31.3271 9.81921L23.168 7.57349L27.5852 11.969Z" fill="url(#paint40_linear_1732_206089)"/>
<path d="M17.1309 5.9646L23.8608 6.3742L31.3242 9.81918L23.1649 7.57346L17.1309 5.9646Z" fill="url(#paint41_linear_1732_206089)"/>
<path d="M11.0996 7.57357L17.1337 5.9647L23.8636 6.3743L17.1337 1.66528L11.0996 7.57357Z" fill="url(#paint42_linear_1732_206089)"/>
<path d="M48.9448 19.4173C49.1154 19.7416 49.2776 20.0786 49.4312 20.4285C49.5933 20.7783 49.7469 21.1367 49.8919 21.5037C50.037 21.1282 50.1906 20.7655 50.3527 20.4157C50.5149 20.0573 50.6813 19.7117 50.8519 19.3789L55.639 9.95835C55.7243 9.79622 55.8097 9.67249 55.895 9.58716C55.9889 9.49329 56.0913 9.42503 56.2022 9.38236C56.3131 9.3397 56.4368 9.3141 56.5734 9.30556C56.7184 9.29703 56.8848 9.29276 57.0726 9.29276H60.3749V27.9419H56.5606V17.2158C56.5606 16.6952 56.5862 16.1321 56.6374 15.5262L51.6967 25.1132C51.5431 25.4118 51.334 25.638 51.0695 25.7915C50.8135 25.9451 50.5191 26.0219 50.1863 26.0219H49.5976C49.2648 26.0219 48.9661 25.9451 48.7016 25.7915C48.4456 25.638 48.2408 25.4118 48.0872 25.1132L43.1209 15.5134C43.155 15.8121 43.1806 16.1107 43.1977 16.4094C43.2148 16.6995 43.2233 16.9683 43.2233 17.2158V27.9419H39.409V9.29276H42.7113C42.8991 9.29276 43.0612 9.29703 43.1977 9.30556C43.3428 9.3141 43.4708 9.3397 43.5817 9.38236C43.6926 9.42503 43.7908 9.49329 43.8761 9.58716C43.97 9.67249 44.0596 9.79622 44.1449 9.95835L48.9448 19.4173ZM68.1943 27.9419H63.8424V9.29276H68.1943V27.9419ZM79.4148 24.5244C79.9951 24.5244 80.5113 24.4305 80.9636 24.2428C81.4244 24.0465 81.8126 23.7692 82.1283 23.4108C82.4441 23.0524 82.683 22.6172 82.8451 22.1052C83.0158 21.5847 83.1011 20.9959 83.1011 20.3389V9.29276H87.4274V20.3389C87.4274 21.4823 87.2397 22.5319 86.8642 23.4876C86.4973 24.4433 85.9682 25.2668 85.2771 25.9579C84.5859 26.6491 83.7454 27.1867 82.7555 27.5707C81.7657 27.9547 80.6521 28.1467 79.4148 28.1467C78.169 28.1467 77.0511 27.9547 76.0613 27.5707C75.0714 27.1867 74.2309 26.6491 73.5397 25.9579C72.8486 25.2668 72.3195 24.4433 71.9526 23.4876C71.5857 22.5319 71.4022 21.4823 71.4022 20.3389V9.29276H75.7285V20.3261C75.7285 20.9831 75.8096 21.5719 75.9717 22.0924C76.1423 22.6044 76.3855 23.0439 76.7013 23.4108C77.017 23.7692 77.401 24.0465 77.8532 24.2428C78.314 24.4305 78.8345 24.5244 79.4148 24.5244ZM94.559 21.0429V27.9419H90.2327V9.29276H96.2998C97.648 9.29276 98.7957 9.43356 99.7429 9.71515C100.699 9.98821 101.475 10.3722 102.072 10.8671C102.678 11.362 103.118 11.9466 103.391 12.6207C103.664 13.2948 103.8 14.0286 103.8 14.8222C103.8 15.4281 103.719 15.9998 103.557 16.5374C103.395 17.075 103.152 17.5742 102.828 18.0349C102.512 18.4872 102.119 18.8925 101.65 19.2509C101.189 19.6093 100.656 19.9037 100.05 20.1341C100.34 20.2792 100.609 20.4583 100.856 20.6717C101.112 20.885 101.334 21.1453 101.522 21.4525L105.49 27.9419H101.573C100.848 27.9419 100.327 27.6688 100.012 27.1227L96.9142 21.7085C96.7776 21.4695 96.6155 21.2989 96.4278 21.1965C96.2486 21.0941 95.9926 21.0429 95.6598 21.0429H94.559ZM94.559 18.0605H96.2998C96.8886 18.0605 97.3877 17.988 97.7973 17.8429C98.2155 17.6894 98.5568 17.4803 98.8213 17.2158C99.0858 16.9512 99.2778 16.644 99.3973 16.2942C99.5168 15.9358 99.5765 15.5518 99.5765 15.1422C99.5765 14.323 99.3077 13.6831 98.7701 13.2223C98.2411 12.7615 97.4176 12.5311 96.2998 12.5311H94.559V18.0605ZM124.614 27.9419H121.26C120.885 27.9419 120.573 27.8566 120.326 27.6859C120.087 27.5067 119.92 27.2806 119.827 27.0075L118.726 23.7564H111.635L110.534 27.0075C110.449 27.2464 110.282 27.464 110.035 27.6603C109.787 27.848 109.484 27.9419 109.126 27.9419H105.747L112.966 9.29276H117.395L124.614 27.9419ZM112.633 20.8125H117.727L116.012 15.7054C115.901 15.3811 115.769 15.0014 115.615 14.5662C115.47 14.1225 115.325 13.6447 115.18 13.1327C115.044 13.6532 114.903 14.1353 114.758 14.579C114.613 15.0228 114.476 15.4067 114.348 15.731L112.633 20.8125ZM137.888 23.1164C137.99 23.1164 138.093 23.1377 138.195 23.1804C138.297 23.2145 138.395 23.2785 138.489 23.3724L140.204 25.1772C139.454 26.1585 138.511 26.9009 137.376 27.4043C136.249 27.8992 134.914 28.1467 133.369 28.1467C131.953 28.1467 130.682 27.9078 129.555 27.4299C128.437 26.9435 127.486 26.2779 126.701 25.4332C125.924 24.5798 125.327 23.5729 124.909 22.4124C124.491 21.2434 124.282 19.9762 124.282 18.6109C124.282 17.22 124.521 15.9443 124.998 14.7838C125.476 13.6148 126.142 12.6079 126.995 11.7631C127.857 10.9183 128.885 10.2613 130.08 9.79195C131.275 9.32263 132.593 9.08797 134.035 9.08797C134.735 9.08797 135.392 9.15197 136.006 9.27996C136.629 9.39943 137.209 9.57009 137.747 9.79195C138.285 10.0053 138.779 10.2655 139.232 10.5727C139.684 10.8714 140.085 11.2042 140.435 11.5711L138.976 13.5295C138.882 13.6489 138.771 13.7599 138.643 13.8622C138.515 13.9561 138.336 14.003 138.105 14.003C137.952 14.003 137.807 13.9689 137.67 13.9006C137.534 13.8324 137.389 13.7513 137.235 13.6575C137.081 13.5551 136.911 13.4484 136.723 13.3375C136.544 13.218 136.326 13.1113 136.07 13.0175C135.823 12.9151 135.528 12.8297 135.187 12.7615C134.854 12.6932 134.462 12.6591 134.009 12.6591C133.224 12.6591 132.508 12.7999 131.859 13.0815C131.211 13.3545 130.652 13.7513 130.182 14.2718C129.722 14.7838 129.359 15.4067 129.094 16.1406C128.838 16.8744 128.71 17.6979 128.71 18.6109C128.71 19.5666 128.838 20.4157 129.094 21.1581C129.359 21.9004 129.713 22.5276 130.157 23.0396C130.609 23.5431 131.134 23.9271 131.731 24.1916C132.328 24.4561 132.968 24.5884 133.651 24.5884C134.044 24.5884 134.402 24.5713 134.726 24.5372C135.05 24.4945 135.349 24.4262 135.622 24.3324C135.904 24.2385 136.168 24.1191 136.416 23.974C136.672 23.8204 136.928 23.6327 137.184 23.4108C137.286 23.3255 137.397 23.2572 137.517 23.206C137.636 23.1463 137.76 23.1164 137.888 23.1164Z" fill="#232323"/>
<defs>
<linearGradient id="paint0_linear_1732_206089" x1="2.93945" y1="17.9733" x2="31.326" y2="17.9733" gradientUnits="userSpaceOnUse">
<stop offset="1" stop-color="#3B3F4C"/>
</linearGradient>
<linearGradient id="paint1_linear_1732_206089" x1="20.6195" y1="17.959" x2="20.6195" y2="23.996" gradientUnits="userSpaceOnUse">
<stop stop-color="#58606D"/>
<stop offset="1" stop-color="#484D59"/>
</linearGradient>
<linearGradient id="paint2_linear_1732_206089" x1="15.7869" y1="22.412" x2="13.6506" y2="17.9807" gradientUnits="userSpaceOnUse">
<stop stop-color="#141419"/>
<stop offset="1" stop-color="#0F0F13"/>
</linearGradient>
<linearGradient id="paint3_linear_1732_206089" x1="17.5656" y1="19.424" x2="17.1116" y2="24.2927" gradientUnits="userSpaceOnUse">
<stop stop-color="#0C0D10"/>
<stop offset="1" stop-color="#1D2630"/>
</linearGradient>
<linearGradient id="paint4_linear_1732_206089" x1="20.641" y1="11.9363" x2="20.641" y2="17.9733" gradientUnits="userSpaceOnUse">
<stop stop-color="#434954"/>
<stop offset="1" stop-color="#5A626F"/>
</linearGradient>
<linearGradient id="paint5_linear_1732_206089" x1="12.1595" y1="12.5131" x2="13.5818" y2="17.8455" gradientUnits="userSpaceOnUse">
<stop stop-color="#0D0D11"/>
<stop offset="1" stop-color="#121216"/>
</linearGradient>
<linearGradient id="paint6_linear_1732_206089" x1="18.3435" y1="17.6222" x2="17.2417" y2="12.3882" gradientUnits="userSpaceOnUse">
<stop stop-color="#191C20"/>
<stop offset="1" stop-color="#222933"/>
</linearGradient>
<linearGradient id="paint7_linear_1732_206089" x1="28.3827" y1="15.2509" x2="21.5473" y2="12.8675" gradientUnits="userSpaceOnUse">
<stop stop-color="#21292F"/>
<stop offset="1" stop-color="#1A2229"/>
</linearGradient>
<linearGradient id="paint8_linear_1732_206089" x1="20.924" y1="11.7338" x2="27.8144" y2="21.397" gradientUnits="userSpaceOnUse">
<stop stop-color="#0C0E10"/>
<stop offset="1" stop-color="#0C0D10"/>
</linearGradient>
<linearGradient id="paint9_linear_1732_206089" x1="5.18661" y1="19.682" x2="12.1068" y2="25.7501" gradientUnits="userSpaceOnUse">
<stop stop-color="#313A42"/>
<stop offset="1" stop-color="#262C32"/>
</linearGradient>
<linearGradient id="paint10_linear_1732_206089" x1="5.70967" y1="12.9229" x2="11.9176" y2="24.3122" gradientUnits="userSpaceOnUse">
<stop stop-color="#6C747F"/>
<stop offset="1" stop-color="#79828D"/>
</linearGradient>
<linearGradient id="paint11_linear_1732_206089" x1="19.6762" y1="7.52039" x2="14.0396" y2="12.11" gradientUnits="userSpaceOnUse">
<stop stop-color="#101219"/>
<stop offset="1" stop-color="#363D48"/>
</linearGradient>
<linearGradient id="paint12_linear_1732_206089" x1="24.5409" y1="10.5268" x2="13.6344" y2="12.0338" gradientUnits="userSpaceOnUse">
<stop stop-color="#262D36"/>
<stop offset="1" stop-color="#38414B"/>
</linearGradient>
<linearGradient id="paint13_linear_1732_206089" x1="14.3828" y1="28.6903" x2="18.8289" y2="22.8218" gradientUnits="userSpaceOnUse">
<stop stop-color="#535B64"/>
<stop offset="1" stop-color="#4D535C"/>
</linearGradient>
<linearGradient id="paint14_linear_1732_206089" x1="11.6191" y1="27.1715" x2="13.785" y2="23.762" gradientUnits="userSpaceOnUse">
<stop stop-color="#252B35"/>
<stop offset="1" stop-color="#2B323C"/>
</linearGradient>
<linearGradient id="paint15_linear_1732_206089" x1="24.6137" y1="17.9762" x2="24.9681" y2="25.5068" gradientUnits="userSpaceOnUse">
<stop stop-color="#454C57"/>
<stop offset="1" stop-color="#3B424C"/>
</linearGradient>
<linearGradient id="paint16_linear_1732_206089" x1="25.3318" y1="18.6518" x2="18.6243" y2="30.5668" gradientUnits="userSpaceOnUse">
<stop stop-color="#0C0C0F"/>
<stop offset="1" stop-color="#0D0D10"/>
</linearGradient>
<linearGradient id="paint17_linear_1732_206089" x1="11.9907" y1="9.25227" x2="8.41987" y2="15.0008" gradientUnits="userSpaceOnUse">
<stop stop-color="#050608"/>
<stop offset="1" stop-color="#101822"/>
</linearGradient>
<linearGradient id="paint18_linear_1732_206089" x1="15.7243" y1="5.38833" x2="8.88926" y2="17.29" gradientUnits="userSpaceOnUse">
<stop stop-color="#8C959E"/>
<stop offset="1" stop-color="#666E7A"/>
</linearGradient>
<linearGradient id="paint19_linear_1732_206089" x1="11.5219" y1="8.26527" x2="6.28504" y2="11.2896" gradientUnits="userSpaceOnUse">
<stop stop-color="#343944"/>
<stop offset="0.37292"/>
</linearGradient>
<linearGradient id="paint20_linear_1732_206089" x1="12.4064" y1="9.21429" x2="15.4157" y2="4.86878" gradientUnits="userSpaceOnUse">
<stop stop-color="#3A3E49"/>
<stop offset="1" stop-color="#0E1520"/>
</linearGradient>
<linearGradient id="paint21_linear_1732_206089" x1="22.8111" y1="8.29683" x2="17.7429" y2="5.57931" gradientUnits="userSpaceOnUse">
<stop stop-color="#2D353E"/>
<stop offset="1" stop-color="#2B333C"/>
</linearGradient>
<linearGradient id="paint22_linear_1732_206089" x1="22.7495" y1="8.26092" x2="27.5725" y2="11.9473" gradientUnits="userSpaceOnUse">
<stop stop-color="#6A7280"/>
<stop offset="1" stop-color="#4F5662"/>
</linearGradient>
<linearGradient id="paint23_linear_1732_206089" x1="27.566" y1="11.9551" x2="28.383" y2="17.9805" gradientUnits="userSpaceOnUse">
<stop stop-color="#666D7A"/>
<stop offset="1" stop-color="#6E7681"/>
</linearGradient>
<linearGradient id="paint24_linear_1732_206089" x1="28.3909" y1="17.9732" x2="27.574" y2="23.9641" gradientUnits="userSpaceOnUse">
<stop stop-color="#707887"/>
<stop offset="1" stop-color="#707887"/>
</linearGradient>
<linearGradient id="paint25_linear_1732_206089" x1="22.8617" y1="27.6404" x2="17.3287" y2="29.6593" gradientUnits="userSpaceOnUse">
<stop stop-color="#384048"/>
<stop offset="1" stop-color="#383F48"/>
</linearGradient>
<linearGradient id="paint26_linear_1732_206089" x1="22.4748" y1="28.3352" x2="26.757" y2="23.3841" gradientUnits="userSpaceOnUse">
<stop stop-color="#686F7C"/>
<stop offset="1" stop-color="#585C67"/>
</linearGradient>
<linearGradient id="paint27_linear_1732_206089" x1="6.73057" y1="23.9133" x2="11.4594" y2="27.6767" gradientUnits="userSpaceOnUse">
<stop stop-color="#121216"/>
<stop offset="1" stop-color="#10141B"/>
</linearGradient>
<linearGradient id="paint28_linear_1732_206089" x1="16.6395" y1="28.4837" x2="11.8232" y2="28.4988" gradientUnits="userSpaceOnUse">
<stop stop-color="#2E3641"/>
<stop offset="1" stop-color="#272E39"/>
</linearGradient>
<linearGradient id="paint29_linear_1732_206089" x1="4.47727" y1="15.5451" x2="7.37504" y2="14.7871" gradientUnits="userSpaceOnUse">
<stop stop-color="#101015"/>
<stop offset="1" stop-color="#07080B"/>
</linearGradient>
<linearGradient id="paint30_linear_1732_206089" x1="5.2728" y1="21.3208" x2="7.74585" y2="19.883" gradientUnits="userSpaceOnUse">
<stop stop-color="#0E0F13"/>
<stop offset="1" stop-color="#11151C"/>
</linearGradient>
<linearGradient id="paint31_linear_1732_206089" x1="16.1387" y1="1.62478" x2="6.77726" y2="11.1689" gradientUnits="userSpaceOnUse">
<stop stop-color="#6D7487"/>
<stop offset="1" stop-color="#7B8296"/>
</linearGradient>
<linearGradient id="paint32_linear_1732_206089" x1="3.91091" y1="14.0328" x2="8.95494" y2="6.24213" gradientUnits="userSpaceOnUse">
<stop stop-color="#131821"/>
<stop offset="1" stop-color="#111924"/>
</linearGradient>
<linearGradient id="paint33_linear_1732_206089" x1="2.26378" y1="9.99758" x2="5.94527" y2="23.9312" gradientUnits="userSpaceOnUse">
<stop stop-color="#6E778A"/>
<stop offset="1" stop-color="#6E7588"/>
</linearGradient>
<linearGradient id="paint34_linear_1732_206089" x1="3.66213" y1="26.4959" x2="6.80145" y2="23.6652" gradientUnits="userSpaceOnUse">
<stop stop-color="#262D36"/>
<stop offset="1" stop-color="#3E4651"/>
</linearGradient>
<linearGradient id="paint35_linear_1732_206089" x1="7.93081" y1="30.4567" x2="11.203" y2="26.6826" gradientUnits="userSpaceOnUse">
<stop stop-color="#3E4652"/>
<stop offset="1" stop-color="#2C343E"/>
</linearGradient>
<linearGradient id="paint36_linear_1732_206089" x1="14.374" y1="31.9708" x2="18.8619" y2="26.3374" gradientUnits="userSpaceOnUse">
<stop stop-color="#414955"/>
<stop offset="1" stop-color="#515963"/>
</linearGradient>
<linearGradient id="paint37_linear_1732_206089" x1="27.2389" y1="24.8232" x2="18.1975" y2="34.4422" gradientUnits="userSpaceOnUse">
<stop stop-color="#1F2223"/>
<stop offset="1" stop-color="#040707"/>
</linearGradient>
<linearGradient id="paint38_linear_1732_206089" x1="30.5992" y1="21.5903" x2="24.6212" y2="29.8273" gradientUnits="userSpaceOnUse">
<stop stop-color="#1F252C"/>
<stop offset="1" stop-color="#474E58"/>
</linearGradient>
<linearGradient id="paint39_linear_1732_206089" x1="28.1789" y1="11.8087" x2="31.8965" y2="25.649" gradientUnits="userSpaceOnUse">
<stop stop-color="#0E0F11"/>
<stop offset="1" stop-color="#0E0F12"/>
</linearGradient>
<linearGradient id="paint40_linear_1732_206089" x1="27.7438" y1="12.2937" x2="31.5187" y2="10.1747" gradientUnits="userSpaceOnUse">
<stop stop-color="#1F2732"/>
<stop offset="1" stop-color="#373D48"/>
</linearGradient>
<linearGradient id="paint41_linear_1732_206089" x1="31.189" y1="9.14545" x2="17.8528" y2="5.39691" gradientUnits="userSpaceOnUse">
<stop stop-color="#0F1521"/>
<stop offset="1" stop-color="#3B3F4C"/>
</linearGradient>
<linearGradient id="paint42_linear_1732_206089" x1="16.9497" y1="8.67567" x2="18.5487" y2="3.50879" gradientUnits="userSpaceOnUse">
<stop stop-color="#111929"/>
<stop offset="1" stop-color="#131721"/>
</linearGradient>
</defs>
</svg>
