<svg width="12" height="24" viewBox="0 0 12 24" fill="none" xmlns="http://www.w3.org/2000/svg">
<g clip-path="url(#clip0_1724_206089)">
<path d="M1.25 5.5C1.25 6.75978 1.75044 7.96796 2.64124 8.85876C3.53204 9.74956 4.74022 10.25 6 10.25C7.25978 10.25 8.46796 9.74956 9.35876 8.85876C10.2496 7.96796 10.75 6.75978 10.75 5.5C10.75 4.24022 10.2496 3.03204 9.35876 2.14124C8.46796 1.25045 7.25978 0.75 6 0.75C4.74022 0.75 3.53204 1.25045 2.64124 2.14124C1.75044 3.03204 1.25 4.24022 1.25 5.5Z" fill="#06E501"/>
<path d="M6 10.25C4.74022 10.25 3.53204 9.74955 2.64124 8.85876C1.75044 7.96796 1.25 6.75978 1.25 5.5C1.25 4.24022 1.75044 3.03204 2.64124 2.14124C3.53204 1.25045 4.74022 0.75 6 0.75C7.25978 0.75 8.46796 1.25045 9.35876 2.14124C10.2496 3.03204 10.75 4.24022 10.75 5.5C10.75 6.75978 10.2496 7.96796 9.35876 8.85876C8.46796 9.74955 7.25978 10.25 6 10.25ZM6 10.25V22.9167" stroke="black" stroke-linecap="round" stroke-linejoin="round"/>
</g>
<defs>
<clipPath id="clip0_1724_206089">
<rect width="12" height="24" fill="white"/>
</clipPath>
</defs>
</svg>
