<svg width="278" height="307" viewBox="0 0 278 307" fill="none" xmlns="http://www.w3.org/2000/svg">
<g clip-path="url(#clip0_443_217160)">
<path d="M189.39 190.192C340.442 291.26 291.349 328.92 95.1696 294.62C43.9107 285.658 0.949219 247.866 0.949219 190.192C0.949219 132.518 43.1331 85.7646 95.1696 85.7646C147.206 85.7646 141.456 158.12 189.39 190.192Z" fill="#3F3D56"/>
<path opacity="0.1" d="M202.895 288.652C235.851 288.652 262.567 286.262 262.567 283.313C262.567 280.365 235.851 277.974 202.895 277.974C169.938 277.974 143.222 280.365 143.222 283.313C143.222 286.262 169.938 288.652 202.895 288.652Z" fill="black"/>
<path opacity="0.1" d="M85.2063 112.665C102.674 112.665 116.835 110.275 116.835 107.326C116.835 104.377 102.674 101.987 85.2063 101.987C67.7386 101.987 53.5781 104.377 53.5781 107.326C53.5781 110.275 67.7386 112.665 85.2063 112.665Z" fill="black"/>
<path opacity="0.1" d="M83.549 120.47C69.9782 120.467 56.6836 124.304 45.2008 131.536C33.718 138.768 24.5155 149.102 18.6562 161.343C25.3914 153.902 33.6127 147.957 42.789 143.892C51.9652 139.827 61.8921 137.732 71.9284 137.743C111.649 137.743 143.85 169.945 143.85 209.665C143.866 220.411 141.464 231.023 136.821 240.714C148.845 227.495 155.496 210.261 155.47 192.391C155.47 152.671 123.269 120.47 83.549 120.47Z" fill="black"/>
<path opacity="0.3" d="M143.851 209.351C143.867 220.097 141.465 230.708 136.822 240.4C130.087 247.84 121.865 253.785 112.689 257.85C103.513 261.915 93.5858 264.01 83.5496 263.999C43.8294 263.999 11.628 231.797 11.628 192.077C11.6118 181.331 14.0141 170.719 18.6569 161.028C25.392 153.588 33.6134 147.643 42.7896 143.578C51.9658 139.513 61.8928 137.418 71.929 137.429C111.649 137.429 143.851 169.631 143.851 209.351Z" fill="#60A5CC"/>
<path d="M83.5488 264.352C43.6962 264.352 11.2737 231.93 11.2737 192.077C11.2447 181.277 13.6596 170.61 18.3373 160.876C24.2254 148.575 33.4731 138.191 45.0123 130.923C56.5515 123.655 69.9114 119.8 83.5488 119.802C123.401 119.802 155.824 152.225 155.824 192.077C155.824 201.569 153.955 210.967 150.323 219.736C146.691 228.506 141.368 236.473 134.656 243.185C127.945 249.896 119.977 255.22 111.208 258.852C102.439 262.484 93.0402 264.353 83.5488 264.352V264.352ZM83.5488 120.509C56.165 120.509 30.8181 136.474 18.9747 161.181C14.3427 170.821 11.9516 181.383 11.9805 192.077C11.9805 231.54 44.0858 263.645 83.5488 263.645C92.9474 263.646 102.254 261.795 110.937 258.199C119.621 254.602 127.511 249.331 134.157 242.685C140.802 236.039 146.074 228.149 149.67 219.466C153.267 210.783 155.118 201.476 155.117 192.077C155.117 152.614 123.012 120.509 83.5488 120.509V120.509Z" fill="white"/>
<path d="M248.093 265.265C242.87 272.097 243.467 281.329 243.467 281.329C243.467 281.329 252.533 279.486 257.757 272.654C262.981 265.823 262.383 256.59 262.383 256.59C262.383 256.59 253.317 258.434 248.093 265.265Z" fill="#D0CDE1"/>
<path d="M251.517 266.799C250.503 275.339 243.641 281.545 243.641 281.545C243.641 281.545 238.423 273.905 239.436 265.365C240.45 256.826 247.312 250.62 247.312 250.62C247.312 250.62 252.53 258.26 251.517 266.799Z" fill="#60A5CC"/>
<path d="M62.0249 66.7514C78.4152 66.7514 91.7021 53.4645 91.7021 37.0742C91.7021 20.6839 78.4152 7.39697 62.0249 7.39697C45.6346 7.39697 32.3477 20.6839 32.3477 37.0742C32.3477 53.4645 45.6346 66.7514 62.0249 66.7514Z" fill="#FF6584"/>
<path d="M126.367 67.332C126.382 96.9757 108.764 107.333 87.0267 107.344C86.5218 107.344 86.0193 107.339 85.5193 107.328C84.5119 107.306 83.5149 107.261 82.5285 107.191C62.9095 105.812 47.6609 94.9388 47.6475 67.3702C47.6336 38.8402 84.0795 2.81817 86.8128 0.154678C86.8152 0.154678 86.8152 0.154678 86.8176 0.152257C86.9214 0.0507462 86.9746 0 86.9746 0C86.9746 0 126.353 37.6908 126.367 67.332Z" fill="#84CBFF"/>
<path d="M85.5915 102.81L99.9772 82.6896L85.5563 105.018L85.5188 107.328C84.5114 107.306 83.5145 107.261 82.528 107.191L84.0645 77.5349L84.0524 77.3054L84.0789 77.2619L84.2249 74.4595L69.7461 52.0895L84.2674 72.3602L84.3039 72.9545L85.4646 50.5478L73.0679 27.4303L85.6149 46.6101L86.8123 0.1546L86.817 0L86.8171 0.152179L86.632 36.7871L98.9525 22.2577L86.5804 39.9421L86.264 60.0051L97.7705 40.746L86.2196 62.9548L86.0438 74.1108L102.743 47.3023L85.9805 78.0026L85.5915 102.81Z" fill="#3F3D56"/>
<path d="M203.425 84.3162C199.653 77.9422 192.19 77.6451 192.19 77.6451C192.19 77.6451 184.917 76.7151 180.252 86.4228C175.904 95.4712 169.902 104.208 179.286 106.326L180.981 101.05L182.03 106.718C183.366 106.815 184.707 106.837 186.045 106.787C196.094 106.463 205.664 106.882 205.356 103.276C204.946 98.4823 207.055 90.4492 203.425 84.3162Z" fill="#2F2E41"/>
<path d="M186.782 144.127L187.753 153.83L210.232 151.404L210.718 144.127H186.782Z" fill="#A0616A"/>
<path d="M184.357 149.464L183.71 155.124C183.71 155.124 176.271 165.474 176.918 183.264C177.565 201.054 166.729 280.138 174.492 280.784C182.255 281.431 196.163 282.402 196.81 279.976C197.457 277.55 198.751 185.528 198.751 185.528C198.751 185.528 202.147 280.091 207.969 280.414C213.791 280.738 233.36 281.384 233.36 278.959C233.36 276.533 216.217 168.224 216.217 168.224L213.468 159.167L210.718 148.008C210.718 148.008 193.575 150.919 188.885 149.787C184.195 148.655 184.357 149.464 184.357 149.464Z" fill="#2F2E41"/>
<path d="M192.12 104.666C197.836 104.666 202.47 100.032 202.47 94.3153C202.47 88.5989 197.836 83.9648 192.12 83.9648C186.404 83.9648 181.77 88.5989 181.77 94.3153C181.77 100.032 186.404 104.666 192.12 104.666Z" fill="#A0616A"/>
<path d="M210.233 111.458L208.268 114.318L207.01 116.147L204.896 119.221L194.384 120.03C194.384 120.03 191.83 119.205 188.884 118C187.795 117.554 186.652 117.056 185.565 116.527C181.349 114.479 177.966 111.981 181.769 110.326C182.445 110.036 183.094 109.688 183.708 109.285C184.268 108.919 184.789 108.497 185.263 108.026C186.237 107.05 186.958 105.851 187.364 104.532C187.77 103.214 187.848 101.816 187.591 100.461L197.78 99.0054C197.484 101.59 200.054 104.409 202.934 106.71C203.88 107.468 204.862 108.169 205.785 108.787C208.207 110.407 210.233 111.458 210.233 111.458Z" fill="#A0616A"/>
<path d="M196.324 114.531C196.324 114.531 186.378 112.833 184.114 109.275C184.114 109.275 174.33 110.488 175.138 115.663C175.947 120.838 184.033 149.14 184.033 149.14C184.033 149.14 204.249 145.259 211.688 148.17L216.217 112.105C216.217 112.105 214.599 108.547 211.526 109.517C208.454 110.488 207.241 109.598 207.241 109.598C207.241 109.598 203.764 114.531 196.324 114.531Z" fill="#D0CDE1"/>
<path d="M205.381 171.297C205.381 171.297 212.336 179.059 208.454 180.353C204.573 181.647 199.883 175.178 199.883 175.178L205.381 171.297Z" fill="#A0616A"/>
<path d="M207.645 171.943C207.645 171.943 201.985 175.825 204.087 178.412C206.19 181 213.467 176.148 213.467 175.178C213.467 174.208 207.645 171.943 207.645 171.943Z" fill="#A0616A"/>
<path d="M193.737 150.919L189.047 151.728L185.974 128.924C186.151 124.787 186.014 120.643 185.565 116.527C185.222 113.777 184.649 111.135 183.708 109.285C184.267 108.919 184.788 108.497 185.262 108.026C186.388 109.81 188.442 113.588 188.883 118C188.999 119.105 188.999 120.219 188.885 121.323C188.076 128.924 188.238 130.38 188.238 130.38L193.737 150.919Z" fill="#2F2E41"/>
<path d="M182.901 110.65C182.901 110.65 175.3 108.547 174.653 113.075C174.006 117.604 174.815 129.248 176.594 133.614C178.373 137.981 184.518 152.213 184.518 152.213C184.518 152.213 195.677 166.445 196.162 169.841C196.648 173.237 199.073 176.795 199.073 176.795L206.836 171.782L191.634 146.067L185.003 128.278C185.003 128.278 187.753 112.105 182.901 110.65Z" fill="#D0CDE1"/>
<path d="M212.659 111.296L216.217 112.105C216.217 112.105 219.452 126.013 218.158 133.453C216.864 140.892 216.702 143.48 216.702 143.48L215.57 164.666C215.57 164.666 215.894 178.251 213.629 176.148C211.365 174.046 206.837 173.075 206.837 173.075C206.837 173.075 207.322 167.092 209.101 165.636C209.101 165.636 211.204 154.477 209.91 149.625C208.616 144.774 212.659 111.296 212.659 111.296Z" fill="#D0CDE1"/>
<path d="M213.953 126.984L209.829 150.838L207.322 149.787L211.689 126.984L207.01 116.147L202.935 106.71C203.881 107.468 204.862 108.169 205.786 108.787L208.268 114.318L213.953 126.984Z" fill="#2F2E41"/>
<path d="M201.757 83.7018L194.383 79.8396L184.201 81.4196L182.095 90.724L187.339 90.5222L188.804 87.1038V90.466L191.223 90.3727L192.628 84.9305L193.506 90.724L202.108 90.5483L201.757 83.7018Z" fill="#2F2E41"/>
<path d="M187.191 283.313C189.966 283.313 192.216 282.47 192.216 281.429C192.216 280.388 189.966 279.544 187.191 279.544C184.416 279.544 182.166 280.388 182.166 281.429C182.166 282.47 184.416 283.313 187.191 283.313Z" fill="#2F2E41"/>
<path d="M221.111 283.313C223.886 283.313 226.136 282.47 226.136 281.429C226.136 280.388 223.886 279.544 221.111 279.544C218.336 279.544 216.086 280.388 216.086 281.429C216.086 282.47 218.336 283.313 221.111 283.313Z" fill="#2F2E41"/>
<path d="M94.0835 229.276C88.9433 232.621 83.0198 234.568 76.8974 234.925C70.7751 235.281 64.6656 234.035 59.1718 231.31L59.9496 229.723C66.5716 232.976 74.0773 233.97 81.3177 232.551C88.558 231.133 95.1341 227.381 100.039 221.87C104.945 216.359 107.909 209.392 108.478 202.036C109.047 194.68 107.19 187.34 103.191 181.14C99.1926 174.94 93.272 170.221 86.3361 167.706C79.4001 165.19 71.831 165.017 64.7873 167.213C57.7436 169.408 51.6134 173.851 47.3351 179.862C43.0568 185.873 40.8661 193.12 41.0983 200.495L39.3321 200.549C39.1365 194.344 40.5705 188.196 43.4913 182.719C46.4121 177.241 50.7176 172.624 55.9787 169.329C61.2397 166.034 67.2726 164.175 73.4759 163.938C79.6792 163.701 85.8363 165.094 91.3334 167.979C96.8305 170.863 101.476 175.138 104.806 180.377C108.136 185.616 110.035 191.636 110.313 197.838C110.591 204.039 109.239 210.205 106.392 215.722C103.544 221.238 99.3002 225.911 94.0835 229.276V229.276Z" fill="white"/>
<path d="M78.0999 197.323C72.8749 198.479 65.9211 199.184 60.8543 198.448L67.2149 203.292L49.4082 214.777L50.3659 216.262L68.1727 204.777L69.9627 212.571C71.3821 207.651 74.8923 201.607 78.0999 197.323Z" fill="white"/>
</g>
<defs>
<clipPath id="clip0_443_217160">
<rect width="277.031" height="307" fill="white" transform="translate(0.949219)"/>
</clipPath>
</defs>
</svg>
